<svg version="1.1" xmlns="http://www.w3.org/2000/svg" xmlns:xlink="http://www.w3.org/1999/xlink" viewBox="0 0 172 172"><g fill="none" fill-rule="nonzero" stroke="none" stroke-width="1" stroke-linecap="butt" stroke-linejoin="miter" stroke-miterlimit="10" stroke-dasharray="" stroke-dashoffset="0" font-family="none" font-weight="none" font-size="none" text-anchor="none" style="mix-blend-mode: normal"><path d="M0,172v-172h172v172z" fill="none"></path><g fill="#000000"><path d="M112.875,14.78125c-2.28437,0 -4.03125,1.74687 -4.03125,4.03125c0,2.28438 1.74688,4.03125 4.03125,4.03125h30.63855l-62.35052,62.35053c-1.6125,1.6125 -1.6125,4.16457 0,5.6427c0.80625,0.80625 1.88072,1.2099 2.82135,1.2099c0.94062,0 2.0151,-0.40365 2.82135,-1.2099l62.35053,-62.35052v30.63855c0,2.28438 1.74687,4.03125 4.03125,4.03125c2.28438,0 4.03125,-1.74687 4.03125,-4.03125v-40.3125c0,-2.28438 -1.74687,-4.03125 -4.03125,-4.03125zM32.25,41.65625c-9.675,0 -17.46875,7.79375 -17.46875,17.46875v80.625c0,9.675 7.79375,17.46875 17.46875,17.46875h80.625c9.675,0 17.46875,-7.79375 17.46875,-17.46875v-60.46875c0,-2.28437 -1.74687,-4.03125 -4.03125,-4.03125c-2.28437,0 -4.03125,1.74688 -4.03125,4.03125v60.46875c0,5.24062 -4.16562,9.40625 -9.40625,9.40625h-80.625c-5.24062,0 -9.40625,-4.16563 -9.40625,-9.40625v-80.625c0,-5.24063 4.16563,-9.40625 9.40625,-9.40625h60.46875c2.28437,0 4.03125,-1.74687 4.03125,-4.03125c0,-2.28438 -1.74688,-4.03125 -4.03125,-4.03125z"></path></g></g></svg>
